# xmcd
#
# Track frame offsets: 
#        150
#        20310
#        38372
#
# Disc length: 873 seconds
#
# Revision: 3
# Processed by: cddbd v1.5.2PL0 Copyright (c) Steve Scherf et al.
# Submitted via: ExactAudioCopy v1.3
#
DISCID=12036703
DTITLE=Jennifer Lopez - If You Had My Love
DYEAR=1999
DGENRE=R&B
TTITLE0=If You Had My Love
TTITLE1=If You Had My Love (Darkchild Remix)
TTITLE2=If You Had My Love (Darkchild Extended Remix)
EXTD=YEAR: 1999\n
EXTT0=
EXTT1=
EXTT2=
PLAYORDER=
